<svg xmlns="http://www.w3.org/2000/svg" width="48" height="48" viewBox="0 0 48 48"><path d="M14.336 14.75h.361c.801 0 1.445.645 1.445 1.446v15.173c0 .8-.644 1.445-1.445 1.445h-.36a1.442 1.442 0 0 1-1.446-1.445V16.196c0-.8.645-1.445 1.445-1.445zm6.322 3.613h.362c.8 0 1.445.645 1.445 1.446v11.56c0 .8-.645 1.445-1.445 1.445h-.362c-.8 0-1.445-.644-1.445-1.445V19.81c0-.801.645-1.446 1.445-1.446zm6.322 3.613h.362c.8 0 1.445.645 1.445 1.445v7.948c0 .8-.645 1.445-1.445 1.445h-.362c-.8 0-1.445-.644-1.445-1.445v-7.948c0-.8.645-1.445 1.445-1.445zm6.323 3.613h.36c.801 0 1.446.644 1.446 1.445v4.335c0 .8-.645 1.445-1.445 1.445h-.361a1.441 1.441 0 0 1-1.445-1.445v-4.335c0-.8.644-1.445 1.445-1.445z" fill="#241f1c"/></svg>