<svg xmlns="http://www.w3.org/2000/svg" xmlns:xlink="http://www.w3.org/1999/xlink" width="256" height="256" viewBox="0 0 256 256"><defs><linearGradient id="c"><stop offset="0" stop-color="#669db4"/><stop offset="1" stop-color="#669db4" stop-opacity="0"/></linearGradient><linearGradient id="b"><stop offset="0" stop-color="#241f1c"/><stop offset="1" stop-color="#241f1c" stop-opacity="0"/></linearGradient><linearGradient id="a"><stop offset="0" stop-color="#669db4"/><stop offset="1" stop-color="#669db4" stop-opacity="0"/></linearGradient><radialGradient xlink:href="#a" id="d" cx="97.031" cy="1104.261" fx="97.031" fy="1104.261" r="100.729" gradientTransform="matrix(.5268 -.89029 .87078 .5277 -863.846 549.27)" gradientUnits="userSpaceOnUse"/><linearGradient xlink:href="#b" id="e" x1="79.287" y1="937.494" x2="54.54" y2="870.824" gradientUnits="userSpaceOnUse"/><linearGradient xlink:href="#b" id="f" x1="114.792" y1="944.969" x2="93.581" y2="890.421" gradientUnits="userSpaceOnUse"/><linearGradient xlink:href="#b" id="g" x1="147.267" y1="949.918" x2="128.581" y2="914.563" gradientUnits="userSpaceOnUse"/><linearGradient xlink:href="#b" id="h" x1="182.772" y1="956.383" x2="163.076" y2="931.634" gradientUnits="userSpaceOnUse"/><radialGradient xlink:href="#c" id="i" gradientUnits="userSpaceOnUse" gradientTransform="matrix(-.63877 .44735 -.47314 -.65065 290.97 1062.344)" cx="254.586" cy="837.931" fx="254.586" fy="837.931" r="101.734"/></defs><path d="M172.857 1003.79l-100.73-1.245-49.285-87.857 51.444-86.612 100.73 1.246L224.3 917.18z" transform="matrix(.83755 -.59872 .87379 1.05671 -775.826 -764.644)" fill="#669db4" fill-opacity=".647" stroke="#483e37" stroke-width="3.371"/><path d="M229.508 192.262l-102 58.738L26 187.942l.492-121.797 102-58.738L230 70.465z" fill="#241f1c"/><path d="M172.857 1003.79l-100.73-1.245-49.285-87.857 51.444-86.612 100.73 1.246L224.3 917.18z" transform="matrix(1.0053 -.59614 .59143 1.05216 -537.938 -760.836)" fill="url(#d)"/><path d="M172.857 1003.79l-100.73-1.245-49.285-87.857 51.444-86.612 100.73 1.246L224.3 917.18z" transform="matrix(.98559 -.56903 .57983 1.0043 -524.88 -724.816)" fill="#005b82" stroke="#241f1c" stroke-width="1.741"/><path transform="matrix(.99947 -.59872 .588 1.05671 -534.077 -764.644)" d="M172.857 1003.79l-100.73-1.245-49.285-87.857 51.444-86.612 100.73 1.246L224.3 917.18z" fill="none" stroke="#241f1c" stroke-width=".843"/><g fill="#fff" stroke-width="1.7" transform="translate(0 -796.362)"><rect rx="8" y="874.362" x="66.5" height="100" width="18" stroke="url(#e)"/><rect width="18" height="80" x="101.5" y="894.362" rx="8" stroke="url(#f)"/><rect rx="8" y="914.362" x="136.5" height="60" width="18" stroke="url(#g)"/><rect width="18" height="40" x="171.5" y="934.362" rx="8" stroke="url(#h)"/></g><path d="M172.857 1003.79l-100.73-1.245-49.285-87.857 51.444-86.612 100.73 1.246L224.3 917.18z" transform="matrix(.98559 -.56903 .57983 1.0043 -32.936 -813.71)" fill="url(#i)" stroke="#241f1c" stroke-width="1.741"/></svg>