<svg xmlns="http://www.w3.org/2000/svg" xmlns:xlink="http://www.w3.org/1999/xlink" width="256" height="256" viewBox="0 0 256 256"><defs><linearGradient id="b"><stop offset="0" stop-color="#669db4"/><stop offset="1" stop-color="#669db4" stop-opacity="0"/></linearGradient><linearGradient id="a"><stop offset="0" stop-color="#241f1c"/><stop offset="1" stop-color="#241f1c" stop-opacity="0"/></linearGradient><linearGradient xlink:href="#a" id="d" x1="79.287" y1="937.494" x2="54.54" y2="870.824" gradientUnits="userSpaceOnUse"/><linearGradient xlink:href="#a" id="e" x1="114.792" y1="944.969" x2="93.581" y2="890.421" gradientUnits="userSpaceOnUse"/><linearGradient xlink:href="#a" id="f" x1="147.267" y1="949.918" x2="128.581" y2="914.563" gradientUnits="userSpaceOnUse"/><linearGradient xlink:href="#a" id="g" x1="182.772" y1="956.383" x2="163.076" y2="931.634" gradientUnits="userSpaceOnUse"/><radialGradient xlink:href="#b" id="c" cx="148.499" cy="1065.578" fx="148.499" fy="1065.578" r="101.356" gradientTransform="matrix(.44769 -.7897 .74644 .43151 -713.37 703.573)" gradientUnits="userSpaceOnUse"/><radialGradient xlink:href="#b" id="h" gradientUnits="userSpaceOnUse" gradientTransform="matrix(-.72025 .62563 -.63016 -.71178 1022.998 1142.795)" cx="430.771" cy="931.686" fx="430.771" fy="931.686" r="101.356"/></defs><path d="M229.866 192.238L128.088 251.76l-101.82-62.9-.044-122.423L128 6.914l101.821 62.9z" fill="#241f1c"/><path transform="matrix(.99527 -.59252 .58553 1.04576 -531.225 -755.277)" d="M173.564 1004.106l-101.356-.792-49.993-88.172L73.58 827.76l101.356.792 49.992 88.173z" fill="none" stroke="#6c5353" stroke-width=".849"/><path d="M173.564 1004.106l-101.356-.792-49.993-88.172L73.58 827.76l101.356.792 49.992 88.173z" transform="matrix(.99956 -.59549 .58806 1.051 -534.094 -759.723)" fill="url(#c)"/><path d="M173.506 1004.07l-101.296-.823-49.935-88.137 51.361-87.313 101.297.823 49.935 88.137z" transform="matrix(.99085 -.56903 .58293 1.0043 -528.457 -722.495)" fill="#005b82" stroke="#241f1c" stroke-width="1.736"/><g fill="#fff" stroke-width="1.7" transform="translate(0 -796.362)"><rect rx="8" y="874.362" x="66.5" height="100" width="18" stroke="url(#d)"/><rect width="18" height="80" x="101.5" y="894.362" rx="8" stroke="url(#e)"/><rect rx="8" y="914.362" x="136.5" height="60" width="18" stroke="url(#f)"/><rect width="18" height="40" x="171.5" y="934.362" rx="8" stroke="url(#g)"/></g><path transform="matrix(.99956 -.59549 .58806 1.051 -534.094 -759.723)" d="M173.564 1004.106l-101.356-.792-49.993-88.172L73.58 827.76l101.356.792 49.992 88.173z" fill="url(#h)"/></svg>