<svg xmlns="http://www.w3.org/2000/svg" width="24" height="24" viewBox="0 0 24 24"><path style="isolation:auto;mix-blend-mode:normal" d="M17.5 12.75a2 2 0 0 0-2 2 2 2 0 0 0 2 2 2 2 0 0 0 2-2 2 2 0 0 0-2-2zm0 .667a1.333 1.333 0 0 1 1.333 1.333 1.333 1.333 0 0 1-1.333 1.333 1.333 1.333 0 0 1-1.333-1.333 1.333 1.333 0 0 1 1.333-1.333zm-5.5.833a2 2 0 0 0-2 2 2 2 0 0 0 2 2 2 2 0 0 0 2-2 2 2 0 0 0-2-2zm0 .667a1.333 1.333 0 0 1 1.333 1.333A1.333 1.333 0 0 1 12 17.583a1.333 1.333 0 0 1-1.333-1.333A1.333 1.333 0 0 1 12 14.917zM6.5 12.75a2 2 0 0 0-2 2 2 2 0 0 0 2 2 2 2 0 0 0 2-2 2 2 0 0 0-2-2zm0 .667a1.333 1.333 0 0 1 1.333 1.333A1.333 1.333 0 0 1 6.5 16.083a1.333 1.333 0 0 1-1.333-1.333A1.333 1.333 0 0 1 6.5 13.417zm12-7.667a2.5 2.5 0 0 0-2.5 2.5 2.5 2.5 0 0 0 2.5 2.5 2.5 2.5 0 0 0 2.5-2.5 2.5 2.5 0 0 0-2.5-2.5zm0 .833a1.667 1.667 0 0 1 1.667 1.667A1.667 1.667 0 0 1 18.5 9.917a1.667 1.667 0 0 1-1.667-1.667A1.667 1.667 0 0 1 18.5 6.583zM12 6.75a3 3 0 0 0-3 3 3 3 0 0 0 3 3 3 3 0 0 0 3-3 3 3 0 0 0-3-3zm0 1a2 2 0 0 1 2 2 2 2 0 0 1-2 2 2 2 0 0 1-2-2 2 2 0 0 1 2-2zm-6.5-2A2.5 2.5 0 0 0 3 8.25a2.5 2.5 0 0 0 2.5 2.5A2.5 2.5 0 0 0 8 8.25a2.5 2.5 0 0 0-2.5-2.5zm0 .833A1.667 1.667 0 0 1 7.167 8.25 1.667 1.667 0 0 1 5.5 9.917 1.667 1.667 0 0 1 3.833 8.25 1.667 1.667 0 0 1 5.5 6.583z" color="#000" overflow="visible"/></svg>