<svg xmlns="http://www.w3.org/2000/svg" width="24" height="24" viewBox="0 0 24 24"><g font-weight="400" font-size="40" font-family="sans-serif" letter-spacing="0" word-spacing="0"><text style="line-height:0%" x="17.342" y="1045.035" transform="translate(0 -1028.362)"><tspan x="17.342" y="1045.035" style="line-height:0%;-inkscape-font-specification:'Fira Sans';text-align:end" font-size="20" font-family="Fira Sans" text-anchor="end">𝑥</tspan></text><text style="line-height:0%" x="-1.115" y="1050.878" transform="translate(0 -1028.362)"><tspan x="-1.115" y="1050.878" style="line-height:0%;-inkscape-font-specification:'Fira Sans';text-align:end" font-size="16.25" font-family="Fira Sans" text-anchor="end">𝒚</tspan></text><text y="1046.158" x="15.521" style="line-height:0%" transform="translate(0 -1028.362)"><tspan style="line-height:0%;-inkscape-font-specification:'Fira Sans';text-align:end" y="1046.158" x="15.521" font-size="20" font-family="Fira Sans" text-anchor="end">𝑡</tspan></text></g><path d="M-2.102 16.696q-.146-.771-.302-1.484-.157-.713-.323-1.328-.166-.616-.273-.801-.107-.195-.234-.264-.118-.078-.303-.078-.205 0-.371.098-.166.088-.362.323-.195.224-.517.713l-.635-.42q.615-.928 1.182-1.387.566-.46 1.338-.46.302 0 .527.069.234.068.41.215.176.137.313.361.136.225.263.615.127.381.235.957.117.567.205 1.182h.097q.938-1.318 1.416-1.924.489-.615.82-.908.333-.303.636-.42.312-.127.82-.127.459 0 .752.117l-.39 1.768h-.684q-.059-.41-.342-.41-.088 0-.186.029-.097.029-.244.127-.137.098-.41.38-.273.284-.615.694-.342.41-.703.86l-.664.83q.175.937.332 1.62.156.684.273 1.143.127.45.215.713.097.264.205.4.107.127.215.186.117.049.263.049.264 0 .508-.205.254-.205.723-.928l.635.42q-.684 1.016-1.24 1.435-.547.41-1.31.41-.42 0-.712-.156-.293-.146-.508-.478-.215-.332-.38-1.035-.303-1.25-.372-1.914h-.097q-1.036 1.455-1.543 2.09-.499.634-.83.937-.323.303-.635.42-.303.127-.81.127-.46 0-.753-.117l.39-1.768h.684q.059.41.342.41.137 0 .283-.068.157-.078.44-.351.283-.284.781-.88.498-.595 1.445-1.786z" style="line-height:0%;-inkscape-font-specification:'Fira Sans';text-align:end" font-weight="400" font-size="20" font-family="Fira Sans" letter-spacing="0" word-spacing="0" text-anchor="end"/><path d="M-4.578 15.853q-.159-.968-.413-2.278-.246-1.317-.484-2.388-.238-1.079-.349-1.46-.111-.38-.214-.54-.103-.166-.19-.214-.088-.056-.183-.056-.198 0-.365.167-.167.159-.436.682l-.723-.333q.46-.833 1.048-1.246.587-.42 1.349-.42.61 0 .984.182.38.175.603.492.222.31.357.794.11.38.262 1.34.246 1.564.42 3.071.88-1.261 1.349-2.46.476-1.197.476-2.142 0-.301-.143-.452-.143-.159-.5-.174l.111-.524H.62l.278.524q-.159.547-.492 1.325-.492 1.142-1.325 2.562-.754 1.278-1.643 2.555-1.04 1.492-1.809 2.405-.77.92-1.333 1.356-.444.334-.849.468-.405.143-.857.143-.587 0-1.11-.174l.396-1.793h.833q.008.333.095.491.096.16.334.16.19 0 .357-.072.166-.063.42-.262.254-.198.635-.65.389-.445.873-1.08z" style="line-height:0%;-inkscape-font-specification:'Fira Sans';text-align:end" font-weight="400" font-size="16.25" font-family="Fira Sans" letter-spacing="0" word-spacing="0" text-anchor="end"/><path d="M14.417 15.95q-.85 1.026-1.64 1.514-.782.488-1.641.488-2.041 0-2.041-2.06 0-.655.166-1.377l1.152-5.069h-1.64l.146-.673q.576-.01.87-.088.302-.078.497-.215.205-.137.371-.391t.322-.644q.157-.4.47-1.387h1.347l-.537 2.412h2.969l-.215.986h-2.97l-.868 3.79q-.254 1.103-.322 1.591-.069.479-.069.772 0 1.21 1.006 1.21.43 0 .908-.322.489-.332 1.153-1.123l.566.586z" style="line-height:0%;-inkscape-font-specification:'Fira Sans';text-align:end" font-weight="400" font-size="20" font-family="Fira Sans" letter-spacing="0" word-spacing="0" text-anchor="end"/></svg>