<svg xmlns="http://www.w3.org/2000/svg" xmlns:xlink="http://www.w3.org/1999/xlink" width="256" height="256" viewBox="0 0 256 256"><defs><linearGradient id="a"><stop offset="0" stop-color="#ff8080"/><stop offset="1" stop-color="#e9afc6" stop-opacity="0"/></linearGradient><radialGradient xlink:href="#a" id="b" cx="148.476" cy="1064.201" fx="148.476" fy="1064.201" r="100.729" gradientTransform="matrix(.42084 -.7709 .78965 .43752 -754.354 694.104)" gradientUnits="userSpaceOnUse"/></defs><path d="M172.857 1003.79l-100.73-1.245-49.285-87.857 51.444-86.612 100.73 1.246L224.3 917.18z" transform="matrix(.83755 -.59872 .87379 1.05671 -775.826 -764.644)" fill="#ac93a7" fill-opacity=".647" stroke="#6c5367" stroke-width="3.371"/><path d="M229.508 192.262l-102 58.738L26 187.942l.492-121.797 102-58.738L230 70.465z" fill="#241f1c"/><path d="M172.857 1003.79l-100.73-1.245-49.285-87.857 51.444-86.612 100.73 1.246L224.3 917.18z" transform="matrix(1.0053 -.59614 .59143 1.05216 -537.938 -760.836)" fill="url(#b)"/><path transform="matrix(.99947 -.59872 .588 1.05671 -534.077 -764.644)" d="M172.857 1003.79l-100.73-1.245-49.285-87.857 51.444-86.612 100.73 1.246L224.3 917.18z" fill="none" stroke="#2b0000" stroke-width=".843"/><path d="M172.857 1003.79l-100.73-1.245-49.285-87.857 51.444-86.612 100.73 1.246L224.3 917.18z" transform="matrix(.98559 -.56903 .57983 1.0043 -524.88 -724.816)" fill="#ff2a2a" stroke="#2b0000" stroke-width="1.741"/><path d="M162.8 113.415c35.736 61.613 35.736 61.613-35.49 61.755-71.226.141-71.226.141-35.735-61.613 35.49-61.755 35.49-61.755 71.226-.142z" fill="#ffd5d5" stroke="#a00" stroke-width="1.992"/><text style="line-height:125%" x="96.495" y="956.534" font-weight="400" font-size="40" font-family="sans-serif" letter-spacing="0" word-spacing="0" fill="#a00" transform="translate(0 -796.362)"><tspan x="96.495" y="956.534" style="-inkscape-font-specification:Inconsolata" font-size="105" font-family="Inconsolata">!</tspan></text></svg>