<svg xmlns="http://www.w3.org/2000/svg" xmlns:xlink="http://www.w3.org/1999/xlink" width="256" height="256" viewBox="0 0 256 256"><defs><linearGradient id="a"><stop offset="0" stop-color="#a00"/><stop offset="1" stop-color="#a00" stop-opacity="0"/></linearGradient><linearGradient xlink:href="#a" id="b" x1="129.348" y1="82.285" x2="-155.944" y2="142.39" gradientUnits="userSpaceOnUse"/></defs><g transform="translate(0 -796.362)"><circle cx="244" cy="924.362" r="116" fill="#c8b7b7"/><circle r="116" cy="924.362" cx="12" fill="#c8b7b7"/><circle cx="128" cy="924.362" r="116" fill="#ff2a2a"/><path d="M71.72 755.377l-150.263 7.726-81.822-126.269 68.441-133.995 150.264-7.725 81.822 126.269z" fill="#c8b7b7"/><path d="M127.618 986.362c-99.729 0-99.729 0-49.864-86.368 49.864-86.368 49.864-86.368 99.729 0s49.865 86.368-49.865 86.368z" fill="#f9f9f9"/><text style="line-height:125%;-inkscape-font-specification:Tunga" x="83.676" y="963.408" font-weight="400" font-size="90" font-family="Tunga" letter-spacing="0" word-spacing="0" fill="#ff2a2a"><tspan x="83.676" y="963.408" style="-inkscape-font-specification:Inconsolata" font-size="145" font-family="Inconsolata">!</tspan></text><path d="M124.865 835.583c-11.613 2.939-24.01 24.4-47.111 64.412-49.865 86.368-49.864 86.367 49.865 86.367 99.73 0 99.728.001 49.863-86.367-23.1-40.012-35.498-61.473-47.11-64.412 10.415 3.108 21.604 23.762 42.3 61.994 45.053 83.23 45.053 83.229-45.053 83.229s-90.108 0-45.055-83.229c20.696-38.232 31.885-58.886 42.301-61.994z" fill="#6c5353"/><path d="M124.865 39.22c-11.613 2.94-24.01 24.4-47.111 64.413C27.889 190 27.89 190 127.619 190c99.73 0 99.728 0 49.863-86.367-23.1-40.012-35.498-61.473-47.11-64.412 10.415 3.107 21.604 23.762 42.3 61.994 45.053 83.23 45.053 83.228-45.053 83.228s-90.108.001-45.055-83.228c20.696-38.232 31.885-58.887 42.301-61.994z" transform="translate(0 796.362)" fill="url(#b)"/></g></svg>