<svg xmlns="http://www.w3.org/2000/svg" xmlns:xlink="http://www.w3.org/1999/xlink" width="256" height="256" viewBox="0 0 256 256"><defs><linearGradient id="a"><stop offset="0" stop-color="#669db4"/><stop offset="1" stop-color="#669db4" stop-opacity="0"/></linearGradient><radialGradient xlink:href="#a" id="b" cx="97.031" cy="1104.261" fx="97.031" fy="1104.261" r="100.729" gradientTransform="matrix(.5268 -.89029 .87078 .5277 -863.846 549.27)" gradientUnits="userSpaceOnUse"/></defs><path d="M172.857 1003.79l-100.73-1.245-49.285-87.857 51.444-86.612 100.73 1.246L224.3 917.18z" transform="matrix(.83755 -.59872 .87379 1.05671 -775.826 -764.644)" fill="#669db4" fill-opacity=".647" stroke="#483e37" stroke-width="3.371"/><path d="M229.508 192.262l-102 58.738L26 187.942l.492-121.797 102-58.738L230 70.465z" fill="#241f1c"/><path d="M172.857 1003.79l-100.73-1.245-49.285-87.857 51.444-86.612 100.73 1.246L224.3 917.18z" transform="matrix(1.0053 -.59614 .59143 1.05216 -537.938 -760.836)" fill="url(#b)"/><path d="M172.857 1003.79l-100.73-1.245-49.285-87.857 51.444-86.612 100.73 1.246L224.3 917.18z" transform="matrix(.98559 -.56903 .57983 1.0043 -524.88 -724.816)" fill="#005b82" stroke="#241f1c" stroke-width="1.741"/><path transform="matrix(.99947 -.59872 .588 1.05671 -534.077 -764.644)" d="M172.857 1003.79l-100.73-1.245-49.285-87.857 51.444-86.612 100.73 1.246L224.3 917.18z" fill="none" stroke="#241f1c" stroke-width=".843"/><path d="M46.048 178.653l49.13-37.129 16.469 19.087 38.857-44.471 19.057 27.727 33.86-74.67v109.456" fill="#fff" fill-rule="evenodd" stroke="#483737" stroke-width="2"/></svg>