<?xml version="1.0" encoding="UTF-8" standalone="no"?>
<svg
   xmlns:dc="http://purl.org/dc/elements/1.1/"
   xmlns:cc="http://creativecommons.org/ns#"
   xmlns:rdf="http://www.w3.org/1999/02/22-rdf-syntax-ns#"
   xmlns:svg="http://www.w3.org/2000/svg"
   xmlns="http://www.w3.org/2000/svg"
   id="svg4920"
   version="1.1"
   xml:space="preserve"
   width="1300"
   height="750"
   viewBox="0 0 1300 750"><defs
     id="defs144" /><metadata
     id="metadata4926"><rdf:RDF><cc:Work
         rdf:about=""><dc:format>image/svg+xml</dc:format><dc:type
           rdf:resource="http://purl.org/dc/dcmitype/StillImage" /><dc:title></dc:title></cc:Work></rdf:RDF></metadata><g
     id="mainG"
     transform="translate(19.830508,14.745763)"><rect
       style="color:#000000;clip-rule:nonzero;display:inline;overflow:visible;visibility:visible;opacity:1;isolation:auto;mix-blend-mode:normal;color-interpolation:sRGB;color-interpolation-filters:linearRGB;solid-color:#000000;solid-opacity:1;fill:#cccccc;fill-opacity:1;fill-rule:nonzero;stroke:none;stroke-width:2.11199999;stroke-linecap:round;stroke-linejoin:round;stroke-miterlimit:22.92558479;stroke-dasharray:none;stroke-dashoffset:0;stroke-opacity:1;color-rendering:auto;image-rendering:auto;shape-rendering:auto;text-rendering:auto;enable-background:accumulate"
       id="Room"
       width="1219.5334"
       height="611.66211"
       x="12.083324"
       y="30.346132" /><g
       transform="matrix(1.0000006,0,0,0.99825839,-20.523361,-6.577139)"
       id="Cabinets"
       style="fill:#ffffff"><path
         d="m 857.36438,261.97478 -24.288,0 0,-77.2795 24.288,0 0,77.2795 z"
         style="fill:#ffcc00;fill-opacity:1;fill-rule:evenodd;stroke:#1a1a18;stroke-width:0.69999999;stroke-linecap:butt;stroke-linejoin:miter;stroke-miterlimit:22.92558479;stroke-dasharray:none;stroke-opacity:1"
         id="path4950-3" /><path
         d="m 994.99526,264.18228 -52.9915,0 0,-39.00712 52.9915,0 0,39.00712 z"
         style="fill:#c83737;fill-opacity:1;fill-rule:evenodd;stroke:#1a1a18;stroke-width:0.69999999;stroke-linecap:butt;stroke-linejoin:miter;stroke-miterlimit:22.92558479;stroke-dasharray:none;stroke-opacity:1"
         id="path4952-3" /><path
         d="m 640.11315,555.1415 -144.74719,0 0,-440.33209 144.74719,0 0,440.33209 z"
         style="fill:#ffffff;stroke:#1a1a18;stroke-width:0.7009294;stroke-linecap:butt;stroke-linejoin:miter;stroke-miterlimit:22.92558479;stroke-dasharray:none;stroke-opacity:1"
         id="path4990-2" /><path
         d="m 338.48138,554.8593 -144.3635,0 0,-440.33102 144.3635,0 0,440.33102 z"
         style="fill:#ffffff;stroke:#1a1a18;stroke-width:0.69999999;stroke-linecap:butt;stroke-linejoin:miter;stroke-miterlimit:22.92558479;stroke-dasharray:none;stroke-opacity:1"
         id="path5026-9" /><path
         d="m 758.03428,553.51008 74.37483,0 0,-439.44149 -74.37483,0 0,439.44149 z"
         style="fill:#ffffff;stroke:#1a1a18;stroke-width:0.70030445;stroke-linecap:butt;stroke-linejoin:miter;stroke-miterlimit:22.92558479;stroke-dasharray:none;stroke-opacity:1"
         id="path5046-1" /><path
         d="m 1249.6462,294.64619 -17.2925,0 0,-44.29239 17.2925,0 0,44.29239 z"
         style="fill:#ffffff;stroke:#1a1a18;stroke-width:0.70761102;stroke-linecap:butt;stroke-linejoin:miter;stroke-miterlimit:22.92558479;stroke-dasharray:none;stroke-opacity:1"
         id="path5180-7" /><path
         d="m 1249.6462,249.64619 -17.2925,0 0,-44.29239 17.2925,0 0,44.29239 z"
         style="fill:#ffffff;stroke:#1a1a18;stroke-width:0.7076062;stroke-linecap:butt;stroke-linejoin:miter;stroke-miterlimit:22.92558479;stroke-dasharray:none;stroke-opacity:1"
         id="path5182-8" /><path
         d="m 1249.6462,204.64619 -17.2925,0 0,-44.29239 17.2925,0 0,44.29239 z"
         style="fill:#ffffff;stroke:#1a1a18;stroke-width:0.70761108;stroke-linecap:butt;stroke-linejoin:miter;stroke-miterlimit:22.92558479;stroke-dasharray:none;stroke-opacity:1"
         id="path5184-5" /></g><g
       style="fill:#b7c4c8;fill-opacity:1;stroke:#374548;stroke-linecap:round;stroke-opacity:1"
       id="Borders"><path
         id="path4956-5"
         style="fill:#b7c4c8;fill-opacity:1;stroke:#374548;stroke-width:0.69999999;stroke-linecap:round;stroke-linejoin:miter;stroke-miterlimit:22.92558479;stroke-dasharray:none;stroke-opacity:1"
         d="m 619.55482,108.16341 -69.37538,0 0,3.79312 69.37538,0 0,-3.79312 z" /><path
         id="path4958-9"
         style="fill:#b7c4c8;fill-opacity:1;stroke:#374548;stroke-width:0.69999999;stroke-linecap:round;stroke-linejoin:miter;stroke-miterlimit:22.92558479;stroke-dasharray:none;stroke-opacity:1"
         d="m 619.55482,179.24116 -69.52713,0 0,3.793 69.52713,0 0,-3.793 z" /><path
         id="path4960-4"
         style="fill:#b7c4c8;fill-opacity:1;stroke:#374548;stroke-width:0.69999999;stroke-linecap:round;stroke-linejoin:miter;stroke-miterlimit:22.92558479;stroke-dasharray:none;stroke-opacity:1"
         d="m 544.65357,179.43953 -69.52713,0 0,3.79313 69.52713,0 0,-3.79313 z" /><path
         id="path4962-9"
         style="fill:#b7c4c8;fill-opacity:1;stroke:#374548;stroke-width:0.69999999;stroke-linecap:round;stroke-linejoin:miter;stroke-miterlimit:22.92558479;stroke-dasharray:none;stroke-opacity:1"
         d="m 544.82332,108.06241 -69.52713,0 0,3.79312 69.52713,0 0,-3.79312 z" /><path
         id="path4964-1"
         style="fill:#b7c4c8;fill-opacity:1;stroke:#374548;stroke-width:0.69999999;stroke-linecap:round;stroke-linejoin:miter;stroke-miterlimit:22.92558479;stroke-dasharray:none;stroke-opacity:1"
         d="m 619.40319,253.23916 -69.52712,0 0,3.7935 69.52712,0 0,-3.7935 z" /><path
         id="path4966-0"
         style="fill:#b7c4c8;fill-opacity:1;stroke:#374548;stroke-width:0.69999999;stroke-linecap:round;stroke-linejoin:miter;stroke-miterlimit:22.92558479;stroke-dasharray:none;stroke-opacity:1"
         d="m 544.68544,253.43766 -69.52712,0 0,3.79337 69.52712,0 0,-3.79337 z" /><path
         id="path4968-5"
         style="fill:#b7c4c8;fill-opacity:1;stroke:#374548;stroke-width:0.69999999;stroke-linecap:round;stroke-linejoin:miter;stroke-miterlimit:22.92558479;stroke-dasharray:none;stroke-opacity:1"
         d="m 619.37269,399.75991 -69.52712,0 0,3.79312 69.52712,0 0,-3.79312 z" /><path
         id="path4970-5"
         style="fill:#b7c4c8;fill-opacity:1;stroke:#374548;stroke-width:0.69999999;stroke-linecap:round;stroke-linejoin:miter;stroke-miterlimit:22.92558479;stroke-dasharray:none;stroke-opacity:1"
         d="m 544.70494,399.86903 -69.52712,0 0,3.79313 69.52712,0 0,-3.79313 z" /><path
         id="path4972-9"
         style="fill:#b7c4c8;fill-opacity:1;stroke:#374548;stroke-width:0.69999999;stroke-linecap:round;stroke-linejoin:miter;stroke-miterlimit:22.92558479;stroke-dasharray:none;stroke-opacity:1"
         d="m 619.31219,473.14953 -69.254,0 0,3.79313 69.254,0 0,-3.79313 z" /><path
         id="path4974-5"
         style="fill:#b7c4c8;fill-opacity:1;stroke:#374548;stroke-width:0.70352709;stroke-linecap:round;stroke-linejoin:miter;stroke-miterlimit:22.92558479;stroke-dasharray:none;stroke-opacity:1"
         d="m 544.98743,473.10954 -70.01877,0 0,3.78998 70.01877,0 0,-3.78998 z" /><path
         id="path4976-5"
         style="fill:#b7c4c8;fill-opacity:1;stroke:#374548;stroke-width:0.70703167;stroke-linecap:round;stroke-linejoin:miter;stroke-miterlimit:22.92558479;stroke-dasharray:none;stroke-opacity:1"
         d="m 545.32017,544.01994 -70.78355,0 0,3.78609 70.78355,0 0,-3.78609 z" /><path
         id="path4978-8"
         style="fill:#b7c4c8;fill-opacity:1;stroke:#374548;stroke-width:0.69999999;stroke-linecap:round;stroke-linejoin:miter;stroke-miterlimit:22.92558479;stroke-dasharray:none;stroke-opacity:1"
         d="m 619.61544,326.02078 -69.52712,0 0,3.79313 69.52712,0 0,-3.79313 z" /><path
         id="path4980-2"
         style="fill:#b7c4c8;fill-opacity:1;stroke:#374548;stroke-width:0.69999999;stroke-linecap:round;stroke-linejoin:miter;stroke-miterlimit:22.92558479;stroke-dasharray:none;stroke-opacity:1"
         d="m 544.78044,326.25253 -69.52712,0 0,3.79313 69.52712,0 0,-3.79313 z" /><path
         id="path4982-9"
         style="fill:#b7c4c8;fill-opacity:1;stroke:#374548;stroke-width:0.69999999;stroke-linecap:round;stroke-linejoin:miter;stroke-miterlimit:22.92558479;stroke-dasharray:none;stroke-opacity:1"
         d="m 619.43332,544.07842 -69.34638,0 0,3.79313 69.34638,0 0,-3.79313 z" /><path
         id="path4984-6"
         style="fill:#b7c4c8;fill-opacity:1;stroke:#374548;stroke-width:0.69999999;stroke-linecap:round;stroke-linejoin:miter;stroke-miterlimit:22.92558479;stroke-dasharray:none;stroke-opacity:1"
         d="m 549.97357,107.90578 0,440.37113" /><path
         id="path4988-2"
         style="fill:#b7c4c8;fill-opacity:1;fill-rule:evenodd;stroke:#374548;stroke-width:0.69999999;stroke-linecap:round;stroke-linejoin:miter;stroke-miterlimit:22.92558479;stroke-dasharray:none;stroke-opacity:1"
         d="m 549.88919,547.86405 -4.7505,0 0,-439.88377 4.7505,0 0,439.88377 z" /><path
         id="path4992-6"
         style="fill:#b7c4c8;fill-opacity:1;stroke:#374548;stroke-width:0.53112501;stroke-linecap:round;stroke-linejoin:miter;stroke-miterlimit:10.00000095;stroke-dasharray:none;stroke-opacity:1"
         d="m 243.96894,299.28728 -1.16937,0" /><path
         id="path4994-5"
         style="fill:#b7c4c8;fill-opacity:1;stroke:#374548;stroke-width:0.69999999;stroke-linecap:round;stroke-linejoin:miter;stroke-miterlimit:22.92558479;stroke-dasharray:none;stroke-opacity:1"
         d="m 317.92307,107.88141 -69.3755,0 0,3.79337 69.3755,0 0,-3.79337 z" /><path
         id="path4996-2"
         style="fill:#b7c4c8;fill-opacity:1;stroke:#374548;stroke-width:0.69999999;stroke-linecap:round;stroke-linejoin:miter;stroke-miterlimit:22.92558479;stroke-dasharray:none;stroke-opacity:1"
         d="m 317.92307,178.95941 -69.52713,0 0,3.79312 69.52713,0 0,-3.79312 z" /><path
         id="path4998-8"
         style="fill:#b7c4c8;fill-opacity:1;stroke:#374548;stroke-width:0.69999999;stroke-linecap:round;stroke-linejoin:miter;stroke-miterlimit:22.92558479;stroke-dasharray:none;stroke-opacity:1"
         d="m 243.02182,179.15778 -69.52713,0 0,3.79313 69.52713,0 0,-3.79313 z" /><path
         id="path5000-4"
         style="fill:#b7c4c8;fill-opacity:1;stroke:#374548;stroke-width:0.69999999;stroke-linecap:round;stroke-linejoin:miter;stroke-miterlimit:22.92558479;stroke-dasharray:none;stroke-opacity:1"
         d="m 243.19157,107.78078 -69.52713,0 0,3.79313 69.52713,0 0,-3.79313 z" /><path
         id="path5002-1"
         style="fill:#b7c4c8;fill-opacity:1;stroke:#374548;stroke-width:0.69999999;stroke-linecap:round;stroke-linejoin:miter;stroke-miterlimit:22.92558479;stroke-dasharray:none;stroke-opacity:1"
         d="m 317.77144,252.95753 -69.52712,0 0,3.793 69.52712,0 0,-3.793 z" /><path
         id="path5004-9"
         style="fill:#b7c4c8;fill-opacity:1;stroke:#374548;stroke-width:0.69999999;stroke-linecap:round;stroke-linejoin:miter;stroke-miterlimit:22.92558479;stroke-dasharray:none;stroke-opacity:1"
         d="m 243.05332,253.15591 -69.52713,0 0,3.79312 69.52713,0 0,-3.79312 z" /><path
         id="path5006-6"
         style="fill:#b7c4c8;fill-opacity:1;stroke:#374548;stroke-width:0.69999999;stroke-linecap:round;stroke-linejoin:miter;stroke-miterlimit:22.92558479;stroke-dasharray:none;stroke-opacity:1"
         d="m 317.74094,399.47778 -69.52712,0 0,3.7935 69.52712,0 0,-3.7935 z" /><path
         id="path5008-3"
         style="fill:#b7c4c8;fill-opacity:1;stroke:#374548;stroke-width:0.69999999;stroke-linecap:round;stroke-linejoin:miter;stroke-miterlimit:22.92558479;stroke-dasharray:none;stroke-opacity:1"
         d="m 243.07319,399.58728 -69.52712,0 0,3.79313 69.52712,0 0,-3.79313 z" /><path
         id="path5010-8"
         style="fill:#b7c4c8;fill-opacity:1;stroke:#374548;stroke-width:0.69999999;stroke-linecap:round;stroke-linejoin:miter;stroke-miterlimit:22.92558479;stroke-dasharray:none;stroke-opacity:1"
         d="m 317.68032,472.86791 -69.25388,0 0,3.79312 69.25388,0 0,-3.79312 z" /><path
         id="path5012-1"
         style="fill:#b7c4c8;fill-opacity:1;stroke:#374548;stroke-width:0.70176637;stroke-linecap:round;stroke-linejoin:miter;stroke-miterlimit:22.92558479;stroke-dasharray:none;stroke-opacity:1"
         d="m 243.35644,472.82691 -69.63626,0 0,3.79137 69.63626,0 0,-3.79137 z" /><path
         id="path5014-5"
         style="fill:#b7c4c8;fill-opacity:1;stroke:#374548;stroke-width:0.70352709;stroke-linecap:round;stroke-linejoin:miter;stroke-miterlimit:22.92558479;stroke-dasharray:none;stroke-opacity:1"
         d="m 243.69006,543.73654 -70.01865,0 0,3.7895 70.01865,0 0,-3.7895 z" /><path
         id="path5016-0"
         style="fill:#b7c4c8;fill-opacity:1;stroke:#374548;stroke-width:0.69999999;stroke-linecap:round;stroke-linejoin:miter;stroke-miterlimit:22.92558479;stroke-dasharray:none;stroke-opacity:1"
         d="m 317.98369,325.73878 -69.52712,0 0,3.79313 69.52712,0 0,-3.79313 z" /><path
         id="path5018-0"
         style="fill:#b7c4c8;fill-opacity:1;stroke:#374548;stroke-width:0.69999999;stroke-linecap:round;stroke-linejoin:miter;stroke-miterlimit:22.92558479;stroke-dasharray:none;stroke-opacity:1"
         d="m 243.14869,325.97053 -69.52712,0 0,3.7935 69.52712,0 0,-3.7935 z" /><path
         id="path5020-2"
         style="fill:#b7c4c8;fill-opacity:1;stroke:#374548;stroke-width:0.69999999;stroke-linecap:round;stroke-linejoin:miter;stroke-miterlimit:22.92558479;stroke-dasharray:none;stroke-opacity:1"
         d="m 317.80157,543.79642 -69.3465,0 0,3.79338 69.3465,0 0,-3.79338 z" /><path
         id="path5022-0"
         style="fill:#b7c4c8;fill-opacity:1;stroke:#374548;stroke-width:0.69999999;stroke-linecap:round;stroke-linejoin:miter;stroke-miterlimit:22.92558479;stroke-dasharray:none;stroke-opacity:1"
         d="m 248.34169,107.62378 0,440.37139" /><path
         id="path5024-7"
         style="fill:#b7c4c8;fill-opacity:1;fill-rule:evenodd;stroke:#374548;stroke-width:0.69999999;stroke-linecap:round;stroke-linejoin:miter;stroke-miterlimit:22.92558479;stroke-dasharray:none;stroke-opacity:1"
         d="m 248.25744,547.58205 -4.75062,0 0,-439.88389 4.75062,0 0,439.88389 z" /><path
         id="path5028-2"
         style="fill:#b7c4c8;fill-opacity:1;stroke:#374548;stroke-width:0.69999999;stroke-linecap:round;stroke-linejoin:miter;stroke-miterlimit:22.92558479;stroke-dasharray:none;stroke-opacity:1"
         d="m 737.54207,547.22667 69.37537,0 0,-3.79314 -69.37537,0 0,3.79314 z" /><path
         id="path5030-1"
         style="fill:#b7c4c8;fill-opacity:1;stroke:#374548;stroke-width:0.69999999;stroke-linecap:round;stroke-linejoin:miter;stroke-miterlimit:22.92558479;stroke-dasharray:none;stroke-opacity:1"
         d="m 737.54207,476.14903 69.52712,0 0,-3.7935 -69.52712,0 0,3.7935 z" /><path
         id="path5032-5"
         style="fill:#b7c4c8;fill-opacity:1;stroke:#374548;stroke-width:0.69999999;stroke-linecap:round;stroke-linejoin:miter;stroke-miterlimit:22.92558479;stroke-dasharray:none;stroke-opacity:1"
         d="m 737.69407,402.15053 69.52712,0 0,-3.79312 -69.52712,0 0,3.79312 z" /><path
         id="path5034-3"
         style="fill:#b7c4c8;fill-opacity:1;stroke:#374548;stroke-width:0.69999999;stroke-linecap:round;stroke-linejoin:miter;stroke-miterlimit:22.92558479;stroke-dasharray:none;stroke-opacity:1"
         d="m 737.72419,255.63016 69.52713,0 0,-3.79313 -69.52713,0 0,3.79313 z" /><path
         id="path5036-3"
         style="fill:#b7c4c8;fill-opacity:1;stroke:#374548;stroke-width:0.69999999;stroke-linecap:round;stroke-linejoin:miter;stroke-miterlimit:22.92558479;stroke-dasharray:none;stroke-opacity:1"
         d="m 737.78507,182.24053 69.254,0 0,-3.7935 -69.254,0 0,3.7935 z" /><path
         id="path5038-0"
         style="fill:#b7c4c8;fill-opacity:1;stroke:#374548;stroke-width:0.69999999;stroke-linecap:round;stroke-linejoin:miter;stroke-miterlimit:22.92558479;stroke-dasharray:none;stroke-opacity:1"
         d="m 737.48144,329.36928 69.52713,0 0,-3.79312 -69.52713,0 0,3.79312 z" /><path
         id="path5040-2"
         style="fill:#b7c4c8;fill-opacity:1;stroke:#374548;stroke-width:0.69999999;stroke-linecap:round;stroke-linejoin:miter;stroke-miterlimit:22.92558479;stroke-dasharray:none;stroke-opacity:1"
         d="m 737.66357,111.31166 69.34637,0 0,-3.79313 -69.34637,0 0,3.79313 z" /><path
         id="path5042-2"
         style="fill:#b7c4c8;fill-opacity:1;stroke:#374548;stroke-width:0.69999999;stroke-linecap:round;stroke-linejoin:miter;stroke-miterlimit:22.92558479;stroke-dasharray:none;stroke-opacity:1"
         d="m 807.12369,547.4843 0,-440.37152" /><path
         id="path5044-6"
         style="fill:#b7c4c8;fill-opacity:1;fill-rule:evenodd;stroke:#374548;stroke-width:0.69999999;stroke-linecap:round;stroke-linejoin:miter;stroke-miterlimit:22.92558479;stroke-dasharray:none;stroke-opacity:1"
         d="m 811.88882,547.1463 -4.75088,0 0,-439.88389 4.75088,0 0,439.88389 z" /></g><g
       transform="translate(-20.522943,-6.7754975)"
       id="Walls"
       style="fill:#ececec"><path
         d="m 33.203517,19.44328 129.492363,0 0,17.6835 -129.492363,0 0,-17.6835 z"
         style="fill:#ececec;fill-opacity:1;fill-rule:evenodd;stroke:#1a1a18;stroke-width:1.39999998;stroke-linecap:butt;stroke-linejoin:miter;stroke-miterlimit:22.92558479;stroke-dasharray:none;stroke-opacity:1"
         id="path5186-7" /><path
         id="path4932-5"
         style="fill:#ececec;stroke:#0000e0;stroke-width:1.06262493;stroke-linecap:butt;stroke-linejoin:miter;stroke-miterlimit:10.00000095;stroke-dasharray:none;stroke-opacity:1"
         d="m 162.08563,36.93653 59.01525,0" /><path
         id="path4930-8"
         style="fill:#ececec;stroke:#0000e0;stroke-width:1.06262493;stroke-linecap:butt;stroke-linejoin:miter;stroke-miterlimit:10.00000095;stroke-dasharray:none;stroke-opacity:1"
         d="m 162.08563,36.93653 61.72125,0" /><path
         id="path4934-6"
         style="fill:#ececec;stroke:#0000e0;stroke-width:1.06262493;stroke-linecap:butt;stroke-linejoin:miter;stroke-miterlimit:10.00000095;stroke-dasharray:none;stroke-opacity:1"
         d="m 396.39151,36.93653 -59.01563,0" /><path
         id="path4936-8"
         style="fill:#ececec;stroke:#0000e0;stroke-width:1.06262493;stroke-linecap:butt;stroke-linejoin:miter;stroke-miterlimit:10.00000095;stroke-dasharray:none;stroke-opacity:1"
         d="m 571.68176,36.93653 -59.01525,0" /><path
         id="path4938-1"
         style="fill:#ececec;stroke:#0000e0;stroke-width:1.06262493;stroke-linecap:butt;stroke-linejoin:miter;stroke-miterlimit:10.00000095;stroke-dasharray:none;stroke-opacity:1"
         d="m 687.95713,36.93653 59.01513,0" /><path
         id="path4940-4"
         style="fill:#ececec;stroke:#0000e0;stroke-width:1.06262493;stroke-linecap:butt;stroke-linejoin:miter;stroke-miterlimit:10.00000095;stroke-dasharray:none;stroke-opacity:1"
         d="m 863.24838,36.93653 59.0875,0" /><path
         d="m 1038.612,36.93653 59.0151,0"
         style="fill:#ececec;stroke:#0000e0;stroke-width:1.06262493;stroke-linecap:butt;stroke-linejoin:miter;stroke-miterlimit:10.00000095;stroke-dasharray:none;stroke-opacity:1"
         id="path4942-3" /><path
         d="m 62.737092,320.77953 -29.2065,0 0,-28.868 29.2065,0 0,28.868 z"
         style="fill:#ececec;fill-opacity:1;fill-rule:evenodd;stroke:#1a1a18;stroke-width:1.79999995;stroke-linecap:butt;stroke-linejoin:miter;stroke-miterlimit:22.92558479;stroke-dasharray:none;stroke-opacity:1"
         id="path4946-8" /><path
         d="m 995.08063,320.87278 -29.20637,0 0,-28.86812 29.20637,0 0,28.86812 z"
         style="fill:#ececec;fill-opacity:1;fill-rule:evenodd;stroke:#1a1a18;stroke-width:1.79999995;stroke-linecap:butt;stroke-linejoin:miter;stroke-miterlimit:22.92558479;stroke-dasharray:none;stroke-opacity:1"
         id="path4948-5" /><path
         d="m 527.64051,320.59216 -29.20638,0 0,-28.86813 29.20638,0 0,28.86813 z"
         style="fill:#ececec;fill-opacity:1;fill-rule:evenodd;stroke:#1a1a18;stroke-width:1.79999995;stroke-linecap:butt;stroke-linejoin:miter;stroke-miterlimit:22.92558479;stroke-dasharray:none;stroke-opacity:1"
         id="path4986-8" /><path
         d="m 222.58413,19.77491 116.22325,0 0,17.43312 -116.22325,0 0,-17.43312 z"
         style="fill:#ececec;fill-opacity:1;fill-rule:evenodd;stroke:#1a1a18;stroke-width:1.39999998;stroke-linecap:butt;stroke-linejoin:miter;stroke-miterlimit:22.92558479;stroke-dasharray:none;stroke-opacity:1"
         id="path5188-1" /><path
         d="m 396.55088,19.62966 116.22338,0 0,17.433 -116.22338,0 0,-17.433 z"
         style="fill:#ececec;fill-opacity:1;fill-rule:evenodd;stroke:#1a1a18;stroke-width:1.39999998;stroke-linecap:butt;stroke-linejoin:miter;stroke-miterlimit:22.92558479;stroke-dasharray:none;stroke-opacity:1"
         id="path5190-1" /><path
         d="m 571.71363,19.82666 116.22363,0 0,17.433 -116.22363,0 0,-17.433 z"
         style="fill:#ececec;fill-opacity:1;fill-rule:evenodd;stroke:#1a1a18;stroke-width:1.39999998;stroke-linecap:butt;stroke-linejoin:miter;stroke-miterlimit:22.92558479;stroke-dasharray:none;stroke-opacity:1"
         id="path5192-8" /><path
         d="m 746.87738,19.85291 116.22325,0 0,17.433 -116.22325,0 0,-17.433 z"
         style="fill:#ececec;fill-opacity:1;fill-rule:evenodd;stroke:#1a1a18;stroke-width:1.39999998;stroke-linecap:butt;stroke-linejoin:miter;stroke-miterlimit:22.92558479;stroke-dasharray:none;stroke-opacity:1"
         id="path5194-9" /><path
         d="m 922.55413,19.87878 116.22337,0 0,17.433 -116.22337,0 0,-17.433 z"
         style="fill:#ececec;fill-opacity:1;fill-rule:evenodd;stroke:#1a1a18;stroke-width:1.39999998;stroke-linecap:butt;stroke-linejoin:miter;stroke-miterlimit:22.92558479;stroke-dasharray:none;stroke-opacity:1"
         id="path5196-9" /><path
         d="m 1252.9416,37.10803 -155.0632,-0.0156 -0.01,-17.53688 169.5307,7.5e-4 0.3239,643.29338 -143.5735,0.009 0,-14.6115 128.8066,-0.0156 -0.02,-611.12376 z"
         style="fill:#ececec;fill-opacity:1;fill-rule:evenodd;stroke:#1a1a18;stroke-width:1.39999998;stroke-linecap:butt;stroke-linejoin:miter;stroke-miterlimit:22.92558479;stroke-dasharray:none;stroke-opacity:1"
         id="path5198-2" /><path
         d="m 32.928946,648.75349 973.384654,0 0,14.6266 -973.384654,0 0,-14.6266 z"
         style="fill:#ececec;fill-opacity:1;fill-rule:evenodd;stroke:#1a1a18;stroke-width:1.39739931;stroke-linecap:butt;stroke-linejoin:miter;stroke-miterlimit:22.92558479;stroke-dasharray:none;stroke-opacity:1"
         id="path5200-3" /></g><g
       transform="translate(-20.522943,-6.7754975)"
       id="Sensors"><path
         d="m 254.83488,152.08803 c -4.36812,0 -7.90862,-3.26937 -7.90862,-7.30175 0,-4.03225 3.5405,-7.30125 7.90862,-7.30125 4.36863,0 7.909,3.269 7.909,7.30125 0,4.03238 -3.54037,7.30175 -7.909,7.30175 z"
         style="fill:#e5007d;fill-opacity:1;fill-rule:evenodd;stroke:#1a1a18;stroke-width:0.34999999;stroke-linecap:butt;stroke-linejoin:miter;stroke-miterlimit:22.92558479;stroke-dasharray:none;stroke-opacity:1"
         id="path5092-8" /><path
         d="m 254.94088,169.32379 c -4.36825,0 -7.90862,-3.2695 -7.90862,-7.30175 0,-4.03225 3.54037,-7.30137 7.90862,-7.30137 4.3685,0 7.909,3.26912 7.909,7.30137 0,4.03225 -3.5405,7.30175 -7.909,7.30175 z"
         style="fill:#a7d3ae;fill-opacity:1;fill-rule:evenodd;stroke:#1a1a18;stroke-width:0.34999999;stroke-linecap:butt;stroke-linejoin:miter;stroke-miterlimit:22.92558479;stroke-dasharray:none;stroke-opacity:1"
         id="path5094-6" /><path
         d="m 254.27922,263.78327 c -4.36813,0 -7.90863,-3.26937 -7.90863,-7.30162 0,-4.03238 3.5405,-7.30138 7.90863,-7.30138 4.36862,0 7.909,3.269 7.909,7.30138 0,4.03225 -3.54038,7.30162 -7.909,7.30162 z"
         style="fill:#e5007d;fill-opacity:1;fill-rule:evenodd;stroke:#1a1a18;stroke-width:0.34999999;stroke-linecap:butt;stroke-linejoin:miter;stroke-miterlimit:22.92558479;stroke-dasharray:none;stroke-opacity:1"
         id="path5096-1" /><path
         d="m 254.38522,281.87697 c -4.36825,0 -7.90863,-3.26938 -7.90863,-7.30163 0,-4.03225 3.54038,-7.30137 7.90863,-7.30137 4.3685,0 7.909,3.26912 7.909,7.30137 0,4.03225 -3.5405,7.30163 -7.909,7.30163 z"
         style="fill:#a7d3ae;fill-opacity:1;fill-rule:evenodd;stroke:#1a1a18;stroke-width:0.34999999;stroke-linecap:butt;stroke-linejoin:miter;stroke-miterlimit:22.92558479;stroke-dasharray:none;stroke-opacity:1"
         id="path5098-6" /><path
         d="m 580.76755,150.35543 c -4.36825,0 -7.90863,-3.26937 -7.90863,-7.30162 0,-4.03225 3.54038,-7.30138 7.90863,-7.30138 4.3685,0 7.909,3.26913 7.909,7.30138 0,4.03225 -3.5405,7.30162 -7.909,7.30162 z"
         style="fill:#e5007d;fill-opacity:1;fill-rule:evenodd;stroke:#1a1a18;stroke-width:0.34999999;stroke-linecap:butt;stroke-linejoin:miter;stroke-miterlimit:22.92558479;stroke-dasharray:none;stroke-opacity:1"
         id="path5100-7" /><path
         d="m 580.87341,169.37966 c -4.36812,0 -7.90862,-3.26938 -7.90862,-7.30163 0,-4.03225 3.5405,-7.30137 7.90862,-7.30137 4.36863,0 7.90913,3.26912 7.90913,7.30137 0,4.03225 -3.5405,7.30163 -7.90913,7.30163 z"
         style="fill:#a7d3ae;fill-opacity:1;fill-rule:evenodd;stroke:#1a1a18;stroke-width:0.34999999;stroke-linecap:butt;stroke-linejoin:miter;stroke-miterlimit:22.92558479;stroke-dasharray:none;stroke-opacity:1"
         id="path5102-2" /><path
         d="m 554.99489,369.30498 c -4.36825,0 -7.90862,-3.26937 -7.90862,-7.30162 0,-4.03225 3.54037,-7.30138 7.90862,-7.30138 4.3685,0 7.909,3.26913 7.909,7.30138 0,4.03225 -3.5405,7.30162 -7.909,7.30162 z"
         style="fill:#e5007d;fill-opacity:1;fill-rule:evenodd;stroke:#1a1a18;stroke-width:0.34999999;stroke-linecap:butt;stroke-linejoin:miter;stroke-miterlimit:22.92558479;stroke-dasharray:none;stroke-opacity:1"
         id="path5104-8" /><path
         d="m 555.10077,388.32921 c -4.36813,0 -7.90863,-3.26938 -7.90863,-7.30163 0,-4.03225 3.5405,-7.30137 7.90863,-7.30137 4.36862,0 7.90912,3.26912 7.90912,7.30137 0,4.03225 -3.5405,7.30163 -7.90912,7.30163 z"
         style="fill:#a7d3ae;fill-opacity:1;fill-rule:evenodd;stroke:#1a1a18;stroke-width:0.34999999;stroke-linecap:butt;stroke-linejoin:miter;stroke-miterlimit:22.92558479;stroke-dasharray:none;stroke-opacity:1"
         id="path5106-9" /><path
         d="m 813.78169,523.75041 c -4.36862,0 -7.90875,-3.26938 -7.90875,-7.30163 0,-4.032 3.54013,-7.30137 7.90875,-7.30137 4.3685,0 7.90863,3.26937 7.90863,7.30137 0,4.03225 -3.54013,7.30163 -7.90863,7.30163 z"
         style="fill:#009ee3;fill-opacity:1;fill-rule:evenodd;stroke:#1a1a18;stroke-width:0.69999999;stroke-linecap:butt;stroke-linejoin:miter;stroke-miterlimit:22.92558479;stroke-dasharray:none;stroke-opacity:1"
         id="path5110-0" /><path
         d="m 813.78156,158.14491 c -4.36825,0 -7.90862,-3.26938 -7.90862,-7.30163 0,-4.03225 3.54037,-7.30137 7.90862,-7.30137 4.3685,0 7.909,3.26912 7.909,7.30137 0,4.03225 -3.5405,7.30163 -7.909,7.30163"
         style="fill:#009ee3;fill-opacity:1;fill-rule:evenodd;stroke:#1a1a18;stroke-width:0.69999999;stroke-linecap:butt;stroke-linejoin:miter;stroke-miterlimit:22.92558479;stroke-dasharray:none;stroke-opacity:1"
         id="path5112-1" /><path
         d="m 587.82288,91.54816 c -4.36825,0 -7.90862,-3.26913 -7.90862,-7.30138 0,-4.03225 3.54037,-7.30162 7.90862,-7.30162 4.3685,0 7.909,3.26937 7.909,7.30162 0,4.03225 -3.5405,7.30138 -7.909,7.30138 z"
         style="fill:#009ee3;fill-opacity:1;fill-rule:evenodd;stroke:#1a1a18;stroke-width:0.69999999;stroke-linecap:butt;stroke-linejoin:miter;stroke-miterlimit:22.92558479;stroke-dasharray:none;stroke-opacity:1"
         id="path5114-4" /><path
         d="m 581.66968,511.34505 c 4.14888,0 7.51175,3.36288 7.51175,7.5115 0,4.14875 -3.36287,7.51175 -7.51175,7.51175 -4.1485,0 -7.5115,-3.363 -7.5115,-7.51175 0,-4.14862 3.363,-7.5115 7.5115,-7.5115 z"
         style="fill:#ae9675;fill-opacity:1;fill-rule:evenodd;stroke:#1a1a18;stroke-width:0.69999999;stroke-linecap:butt;stroke-linejoin:miter;stroke-miterlimit:22.92558479;stroke-dasharray:none;stroke-opacity:1"
         id="path5212-2" /></g><g
       transform="translate(-2.0995019,-10.723378)"
       id="Captions"><text
         transform="matrix(0,1,-1,0,0,0)"
         style="font-style:normal;font-variant:normal;font-weight:normal;font-stretch:normal;font-size:22.5px;line-height:125%;font-family:sans-serif;text-align:start;writing-mode:lr-tb;text-anchor:start;fill:#1a1a18;fill-opacity:1;fill-rule:nonzero;stroke:none"
         id="text5048-8"
         x="296.19409"
         y="-767.7467"><tspan
           y="-767.7467"
           x="296.19409"
           id="tspan4284">Regal 1</tspan></text>
<text
         transform="matrix(0,1,-1,0,0,0)"
         style="font-style:normal;font-variant:normal;font-weight:normal;font-stretch:normal;font-size:22.5px;line-height:125%;font-family:sans-serif;text-align:start;writing-mode:lr-tb;text-anchor:start;fill:#1a1a18;fill-opacity:1;fill-rule:nonzero;stroke:none"
         id="text5052-3"
         x="295.26025"
         y="-578.7467"><tspan
           y="-578.7467"
           x="295.26025"
           id="tspan4280">Regal 2</tspan></text>
<text
         transform="matrix(0,1,-1,0,0,0)"
         style="font-style:normal;font-variant:normal;font-weight:normal;font-stretch:normal;font-size:22.5px;line-height:125%;font-family:sans-serif;text-align:start;writing-mode:lr-tb;text-anchor:start;fill:#1a1a18;fill-opacity:1;fill-rule:nonzero;stroke:none"
         id="text5056-5"
         x="295.49097"
         y="-275.7467"><tspan
           y="-275.7467"
           x="295.49097"
           id="tspan4282">Regal 3</tspan></text>
<text
         style="font-style:normal;font-variant:normal;font-weight:normal;font-stretch:normal;font-size:10px;line-height:125%;font-family:sans-serif;text-align:start;writing-mode:lr-tb;text-anchor:start;fill:#1a1a18;fill-opacity:1;fill-rule:nonzero;stroke:none"
         id="text5116-0"
         x="840.54773"
         y="146.26131"><tspan
           y="146.26131"
           x="840.54773"
           id="tspan4304">9B2</tspan></text>
<text
         style="font-style:normal;font-variant:normal;font-weight:normal;font-stretch:normal;font-size:12.5px;line-height:125%;font-family:sans-serif;text-align:start;writing-mode:lr-tb;text-anchor:start;fill:#1a1a18;fill-opacity:1;fill-rule:nonzero;stroke:none"
         id="text5120-1"
         x="839.87878"
         y="160.53416"><tspan
           y="160.53416"
           x="839.87878"
           id="tspan4314">Deckensensor</tspan></text>
<text
         style="font-style:normal;font-variant:normal;font-weight:normal;font-stretch:normal;font-size:10px;line-height:125%;font-family:sans-serif;text-align:start;writing-mode:lr-tb;text-anchor:start;fill:#1a1a18;fill-opacity:1;fill-rule:nonzero;stroke:none"
         id="text5124-1"
         x="843.54773"
         y="512.07837"><tspan
           y="512.07837"
           x="843.54773"
           id="tspan4302">9B1</tspan></text>
<text
         style="font-style:normal;font-variant:normal;font-weight:normal;font-stretch:normal;font-size:12.5px;line-height:125%;font-family:sans-serif;text-align:start;writing-mode:lr-tb;text-anchor:start;fill:#1a1a18;fill-opacity:1;fill-rule:nonzero;stroke:none"
         id="text5128-7"
         x="842.87878"
         y="525.53418"><tspan
           y="525.53418"
           x="842.87878"
           id="tspan4316">Deckensensor</tspan></text>
<text
         style="font-style:normal;font-variant:normal;font-weight:normal;font-stretch:normal;font-size:12.5px;line-height:125%;font-family:sans-serif;text-align:start;writing-mode:lr-tb;text-anchor:start;fill:#1a1a18;fill-opacity:1;fill-rule:nonzero;stroke:none"
         id="text5132-4"
         x="604.87878"
         y="91.495682"><tspan
           y="91.495682"
           x="604.87878"
           id="tspan4318">Deckensensor</tspan></text>
<text
         style="font-style:normal;font-variant:normal;font-weight:normal;font-stretch:normal;font-size:10px;line-height:125%;font-family:sans-serif;text-align:start;writing-mode:lr-tb;text-anchor:start;fill:#1a1a18;fill-opacity:1;fill-rule:nonzero;stroke:none"
         id="text5136-1"
         x="555.38489"
         y="134.6122"><tspan
           y="134.6122"
           x="555.38489"
           id="tspan4286">3-1-3</tspan></text>
<text
         style="font-style:normal;font-variant:normal;font-weight:normal;font-stretch:normal;font-size:10px;line-height:125%;font-family:sans-serif;text-align:start;writing-mode:lr-tb;text-anchor:start;fill:#1a1a18;fill-opacity:1;fill-rule:nonzero;stroke:none"
         id="text5140-7"
         x="554.20349"
         y="187.18987"><tspan
           y="187.18987"
           x="554.20349"
           id="tspan4298">3-2-3</tspan></text>
<text
         style="font-style:normal;font-variant:normal;font-weight:normal;font-stretch:normal;font-size:10px;line-height:125%;font-family:sans-serif;text-align:start;writing-mode:lr-tb;text-anchor:start;fill:#1a1a18;fill-opacity:1;fill-rule:nonzero;stroke:none"
         id="text5144-7"
         x="555.63257"
         y="550.88812"><tspan
           y="550.88812"
           x="555.63257"
           id="tspan4308">2-3-6</tspan></text>
<text
         style="font-style:normal;font-variant:normal;font-weight:normal;font-stretch:normal;font-size:10px;line-height:125%;font-family:sans-serif;text-align:start;writing-mode:lr-tb;text-anchor:start;fill:#1a1a18;fill-opacity:1;fill-rule:nonzero;stroke:none"
         id="text5148-3"
         x="514.80719"
         y="351.83438"><tspan
           y="351.83438"
           x="514.80719"
           id="tspan4296">3-1-4</tspan></text>
<text
         style="font-style:normal;font-variant:normal;font-weight:normal;font-stretch:normal;font-size:10px;line-height:125%;font-family:sans-serif;text-align:start;writing-mode:lr-tb;text-anchor:start;fill:#1a1a18;fill-opacity:1;fill-rule:nonzero;stroke:none"
         id="text5152-0"
         x="514.39612"
         y="406.27319"><tspan
           y="406.27319"
           x="514.39612"
           id="tspan4300">3-2-4</tspan></text>
<text
         style="font-style:normal;font-variant:normal;font-weight:normal;font-stretch:normal;font-size:10px;line-height:125%;font-family:sans-serif;text-align:start;writing-mode:lr-tb;text-anchor:start;fill:#1a1a18;fill-opacity:1;fill-rule:nonzero;stroke:none"
         id="text5156-6"
         x="201.38971"
         y="249.10637"><tspan
           id="tspan4292">3-1-2</tspan></text>
<text
         style="font-style:normal;font-variant:normal;font-weight:normal;font-stretch:normal;font-size:10px;line-height:125%;font-family:sans-serif;text-align:start;writing-mode:lr-tb;text-anchor:start;fill:#1a1a18;fill-opacity:1;fill-rule:nonzero;stroke:none"
         id="text5160-6"
         x="201.06598"
         y="301.51767"><tspan
           id="tspan4294">3-2-2</tspan></text>
<text
         style="font-style:normal;font-variant:normal;font-weight:normal;font-stretch:normal;font-size:10px;line-height:125%;font-family:sans-serif;text-align:start;writing-mode:lr-tb;text-anchor:start;fill:#1a1a18;fill-opacity:1;fill-rule:nonzero;stroke:none"
         id="text5164-7"
         x="202.83705"
         y="136.74344"><tspan
           id="tspan4288">3-1-1</tspan></text>
<text
         style="font-style:normal;font-variant:normal;font-weight:normal;font-stretch:normal;font-size:10px;line-height:125%;font-family:sans-serif;text-align:start;writing-mode:lr-tb;text-anchor:start;fill:#1a1a18;fill-opacity:1;fill-rule:nonzero;stroke:none"
         id="text5168-8"
         x="202.44325"
         y="188.38341"><tspan
           id="tspan4290">3-2-1</tspan></text>
<text
         transform="matrix(0,-1,1,0,0,0)"
         style="font-style:normal;font-variant:normal;font-weight:normal;font-stretch:normal;font-size:17.5px;line-height:125%;font-family:sans-serif;text-align:start;writing-mode:lr-tb;text-anchor:start;fill:#1a1a18;fill-opacity:1;fill-rule:nonzero;stroke:none"
         id="text5172-0"
         x="-275.72488"
         y="859.27655"><tspan
           id="tspan4270"
           x="-275.72488"
           y="859.27655">1 UV 15 P</tspan></text>
<text
         style="font-style:normal;font-variant:normal;font-weight:normal;font-stretch:normal;font-size:17.5px;line-height:125%;font-family:sans-serif;text-align:start;writing-mode:lr-tb;text-anchor:start;fill:#1a1a18;fill-opacity:1;fill-rule:nonzero;stroke:none"
         id="text5176-9"
         x="983.07391"
         y="255.22107"><tspan
           id="tspan4273">Vertex</tspan></text>
<text
         style="font-style:normal;font-variant:normal;font-weight:normal;font-stretch:normal;font-size:10px;line-height:125%;font-family:sans-serif;text-align:start;writing-mode:lr-tb;text-anchor:start;fill:#1a1a18;fill-opacity:1;fill-rule:nonzero;stroke:none"
         id="text5202-5"
         x="605.50378"
         y="77.531738"><tspan
           y="77.531738"
           x="605.50378"
           id="tspan4306">8B1</tspan></text>
<text
         style="font-style:normal;font-variant:normal;font-weight:normal;font-stretch:normal;font-size:22.5px;line-height:125%;font-family:sans-serif;text-align:start;writing-mode:lr-tb;text-anchor:start;fill:#1a1a18;fill-opacity:1;fill-rule:nonzero;stroke:none"
         id="text5206-0"
         x="546.08966"
         y="616.15479"><tspan
           y="616.15479"
           x="546.08966"
           id="tspan4272">R 3005 Bypack</tspan></text>
<text
         y="723.35052"
         x="603.21667"
         id="text4693"
         style="font-style:normal;font-variant:normal;font-weight:normal;font-stretch:normal;font-size:50px;line-height:125%;font-family:sans-serif;text-align:start;writing-mode:lr-tb;text-anchor:start;fill:#1a1a18;fill-opacity:1;fill-rule:nonzero;stroke:none"><tspan
           y="723.35052"
           x="603.21667"
           id="tspan4278">E1</tspan></text>
<path
         style="fill:none;fill-rule:evenodd;stroke:#000000;stroke-width:1px;stroke-linecap:butt;stroke-linejoin:miter;stroke-opacity:1"
         d="m 577.55072,87.662401 24.20122,0 0,0"
         id="path4279" /><path
         style="fill:none;fill-rule:evenodd;stroke:#000000;stroke-width:1.03568411px;stroke-linecap:butt;stroke-linejoin:miter;stroke-opacity:1"
         d="m 803.33049,155.65498 33.9054,-0.76564"
         id="path4281" /><path
         style="fill:none;fill-rule:evenodd;stroke:#000000;stroke-width:1px;stroke-linecap:butt;stroke-linejoin:miter;stroke-opacity:1"
         d="m 803.42877,520.97948 36.87805,-0.38415"
         id="path4283" /><text
         xml:space="preserve"
         style="font-style:normal;font-variant:normal;font-weight:normal;font-stretch:normal;font-size:15px;line-height:125%;font-family:sans-serif;text-align:start;letter-spacing:0px;word-spacing:0px;writing-mode:lr-tb;text-anchor:start;fill:#000000;fill-opacity:1;stroke:none;stroke-width:1px;stroke-linecap:butt;stroke-linejoin:miter;stroke-opacity:1"
         x="254.63466"
         y="265.138"
         id="text4285"><tspan
           id="tspan4287"
           x="254.63466"
           y="265.138">HBr/BCl₃</tspan></text>
<text
         xml:space="preserve"
         style="font-style:normal;font-variant:normal;font-weight:normal;font-stretch:normal;font-size:15px;line-height:125%;font-family:sans-serif;text-align:start;letter-spacing:0px;word-spacing:0px;writing-mode:lr-tb;text-anchor:start;fill:#000000;fill-opacity:1;stroke:none;stroke-width:1px;stroke-linecap:butt;stroke-linejoin:miter;stroke-opacity:1"
         x="575.63464"
         y="151.4059"
         id="text4285-0"><tspan
           id="tspan4287-5"
           x="575.63464"
           y="151.4059">HBr/BCl₃</tspan></text>
<text
         xml:space="preserve"
         style="font-style:normal;font-variant:normal;font-weight:normal;font-stretch:normal;font-size:15px;line-height:125%;font-family:sans-serif;text-align:start;letter-spacing:0px;word-spacing:0px;writing-mode:lr-tb;text-anchor:start;fill:#000000;fill-opacity:1;stroke:none;stroke-width:1px;stroke-linecap:butt;stroke-linejoin:miter;stroke-opacity:1"
         x="458.35617"
         y="370.36932"
         id="text4285-5"><tspan
           id="tspan4287-1"
           x="458.35617"
           y="370.36932">HBr/BCl₃</tspan></text>
<text
         xml:space="preserve"
         style="font-style:normal;font-variant:normal;font-weight:normal;font-stretch:normal;font-size:15px;line-height:125%;font-family:sans-serif;text-align:start;letter-spacing:0px;word-spacing:0px;writing-mode:lr-tb;text-anchor:start;fill:#000000;fill-opacity:1;stroke:none;stroke-width:1px;stroke-linecap:butt;stroke-linejoin:miter;stroke-opacity:1"
         x="254.63466"
         y="154.47906"
         id="text4285-3"><tspan
           id="tspan4287-54"
           x="254.63466"
           y="154.47906">HBr/BCl₃</tspan></text>
<text
         xml:space="preserve"
         style="font-style:normal;font-variant:normal;font-weight:normal;font-stretch:normal;font-size:15px;line-height:125%;font-family:sans-serif;text-align:start;letter-spacing:0px;word-spacing:0px;writing-mode:lr-tb;text-anchor:start;fill:#000000;fill-opacity:1;stroke:none;stroke-width:1px;stroke-linecap:butt;stroke-linejoin:miter;stroke-opacity:1"
         x="537.63464"
         y="91.503868"
         id="text4323"><tspan
           id="tspan4327"
           x="537.63464"
           y="91.503868">H₂</tspan></text>
<text
         xml:space="preserve"
         style="font-style:normal;font-variant:normal;font-weight:normal;font-stretch:normal;font-size:15px;line-height:125%;font-family:sans-serif;text-align:start;letter-spacing:0px;word-spacing:0px;writing-mode:lr-tb;text-anchor:start;fill:#000000;fill-opacity:1;stroke:none;stroke-width:1px;stroke-linecap:butt;stroke-linejoin:miter;stroke-opacity:1"
         x="576.11804"
         y="527.12579"
         id="text4363"><tspan
           id="tspan4365"
           x="576.11804"
           y="527.12579">SiH₄</tspan></text>
<text
         xml:space="preserve"
         style="font-style:normal;font-variant:normal;font-weight:normal;font-stretch:normal;font-size:15px;line-height:125%;font-family:sans-serif;text-align:start;letter-spacing:0px;word-spacing:0px;writing-mode:lr-tb;text-anchor:start;fill:#000000;fill-opacity:1;stroke:none;stroke-width:1px;stroke-linecap:butt;stroke-linejoin:miter;stroke-opacity:1"
         x="576.2572"
         y="171.13448"
         id="text4363-9"><tspan
           id="tspan4385"
           x="576.2572"
           y="171.13448">Cl₂</tspan></text>
<text
         xml:space="preserve"
         style="font-style:normal;font-variant:normal;font-weight:normal;font-stretch:normal;font-size:15px;line-height:125%;font-family:sans-serif;text-align:start;letter-spacing:0px;word-spacing:0px;writing-mode:lr-tb;text-anchor:start;fill:#000000;fill-opacity:1;stroke:none;stroke-width:1px;stroke-linecap:butt;stroke-linejoin:miter;stroke-opacity:1"
         x="503.46625"
         y="389.05444"
         id="text4363-9-9"><tspan
           id="tspan4385-3"
           x="503.46625"
           y="389.05444">Cl₂</tspan></text>
<text
         xml:space="preserve"
         style="font-style:normal;font-variant:normal;font-weight:normal;font-stretch:normal;font-size:15px;line-height:125%;font-family:sans-serif;text-align:start;letter-spacing:0px;word-spacing:0px;writing-mode:lr-tb;text-anchor:start;fill:#000000;fill-opacity:1;stroke:none;stroke-width:1px;stroke-linecap:butt;stroke-linejoin:miter;stroke-opacity:1"
         x="255.25722"
         y="283.79834"
         id="text4363-9-97"><tspan
           id="tspan4385-34"
           x="255.25722"
           y="283.79834">Cl₂</tspan></text>
<text
         xml:space="preserve"
         style="font-style:normal;font-variant:normal;font-weight:normal;font-stretch:normal;font-size:15px;line-height:125%;font-family:sans-serif;text-align:start;letter-spacing:0px;word-spacing:0px;writing-mode:lr-tb;text-anchor:start;fill:#000000;fill-opacity:1;stroke:none;stroke-width:1px;stroke-linecap:butt;stroke-linejoin:miter;stroke-opacity:1"
         x="763.53516"
         y="149"
         id="text4323-0"><tspan
           id="tspan4327-3"
           x="763.53516"
           y="149">H₂</tspan></text>
<text
         xml:space="preserve"
         style="font-style:normal;font-variant:normal;font-weight:normal;font-stretch:normal;font-size:15px;line-height:125%;font-family:sans-serif;text-align:start;letter-spacing:0px;word-spacing:0px;writing-mode:lr-tb;text-anchor:start;fill:#000000;fill-opacity:1;stroke:none;stroke-width:1px;stroke-linecap:butt;stroke-linejoin:miter;stroke-opacity:1"
         x="763.53516"
         y="514"
         id="text4323-9"><tspan
           id="tspan4327-7"
           x="763.53516"
           y="514">H₂</tspan></text>
<text
         xml:space="preserve"
         style="font-style:normal;font-variant:normal;font-weight:normal;font-stretch:normal;font-size:15px;line-height:125%;font-family:sans-serif;text-align:start;letter-spacing:0px;word-spacing:0px;writing-mode:lr-tb;text-anchor:start;fill:#000000;fill-opacity:1;stroke:none;stroke-width:1px;stroke-linecap:butt;stroke-linejoin:miter;stroke-opacity:1"
         x="255.25722"
         y="171.62762"
         id="text4363-9-6"><tspan
           id="tspan4385-6"
           x="255.25722"
           y="171.62762">Cl₂</tspan></text>
</g><g
       style="stroke:#1a1a1a;stroke-opacity:1"
       transform="translate(-20.522943,-5.3797115)"
       id="Door"><path
         id="path5074-5-9"
         style="fill:none;stroke:#1a1a1a;stroke-width:1.20000005;stroke-linecap:round;stroke-linejoin:round;stroke-miterlimit:10.00000095;stroke-dasharray:none;stroke-opacity:1"
         d="m 1118.5793,658.89727 -3.2718,0 0,3.27165 3.2718,0" /><path
         id="path5078-9-7"
         style="fill:none;stroke:#1a1a1a;stroke-width:1.20000005;stroke-linecap:round;stroke-linejoin:round;stroke-miterlimit:10.00000095;stroke-dasharray:none;stroke-opacity:1"
         d="m 1011.9565,658.89727 3.2715,0 0,3.27165 -3.2715,0" /><path
         d="m 1116.5179,662.07909 0,53.50329 1.7316,0"
         style="fill:none;stroke:#1a1a1a;stroke-width:1.20000005;stroke-linecap:round;stroke-linejoin:round;stroke-miterlimit:10.00000095;stroke-dasharray:none;stroke-opacity:1"
         id="path5086-3-5" /><path
         id="path5066-3-4"
         style="fill:none;stroke:#1a1a1a;stroke-width:1.20000005;stroke-linecap:round;stroke-linejoin:round;stroke-miterlimit:10.00000095;stroke-dasharray:none;stroke-opacity:1"
         d="m 1118.2495,715.58239 0,-67.55135 3.463,0 0,14.04807 -5.1946,0" /><path
         id="path5070-9-5"
         style="fill:none;stroke:#1a1a1a;stroke-width:1.20000005;stroke-linecap:round;stroke-linejoin:round;stroke-miterlimit:10.00000095;stroke-dasharray:none;stroke-opacity:1"
         d="m 1011.6267,715.58239 0,-67.55135 -3.4634,0 0,14.04807" /><path
         id="path5082-1-5"
         style="fill:none;stroke:#1a1a1a;stroke-width:1.20000005;stroke-linecap:round;stroke-linejoin:round;stroke-miterlimit:10.00000095;stroke-dasharray:none;stroke-opacity:1"
         d="m 1064.9382,662.07911 0.3827,6.54344 1.1571,6.35163 1.923,6.15644 2.6933,5.77698 3.2755,5.57778 4.0417,5.00682 4.4249,4.61629 5.1945,3.85031 5.3901,3.4633 5.9648,2.69683 6.1601,1.73181 6.3517,1.34481 6.3519,0.38684" /><path
         id="path5090-9-3"
         style="fill:none;stroke:#1a1a1a;stroke-width:1.20000005;stroke-linecap:round;stroke-linejoin:round;stroke-miterlimit:10.00000095;stroke-dasharray:none;stroke-opacity:1"
         d="m 1064.9382,662.07911 -0.387,6.54344 -1.1533,6.35163 -1.9231,6.15644 -2.6969,5.77698 -3.2715,5.57778 -4.0416,5.00682 -4.425,4.61629 -5.1986,3.85031 -5.3864,3.4633 -5.9684,2.69683 -6.1566,1.73181 -6.3514,1.34481 -6.3517,0.38684 1.7312,0 0,-53.50328 -5.1946,0" /></g></g></svg>
