<?xml version="1.0" encoding="UTF-8" standalone="no"?>
<svg id="logo" xmlns:rdf="http://www.w3.org/1999/02/22-rdf-syntax-ns#" xmlns="http://www.w3.org/2000/svg" version="1.1" xmlns:cc="http://creativecommons.org/ns#" xmlns:dc="http://purl.org/dc/elements/1.1/" viewBox="0 0 167 167">
	<g id="g01" transform="translate(0 -860.299)">
		<path id="Logo" d="m73.4447 949.433c0.02291 0.0143 0.644572-1.17855 1.14792-2.03059 4.08963-6.91302 28.9109-68.4206 34.9889-82.9052-8.21982-2.7093-17.0032-4.19745-26.1337-4.19745-46.088-0.001-83.4478 37.34-83.4478 83.404 0 7.59523 1.03666 14.9448 2.93958 21.9358 5.23918-3.40698 37.173-25.4937 37.2208-25.3382 5.11426 18.824 22.342 28.5308 33.2843 9.13108zm73.7782-59.4958c-6.27078 14.8246-27.3721 64.5565-33.0297 75.7484-11.144 20.2586-28.9501 39.1597-53.0738 40.2453-28.3147 1.2737-43.3097-9.52881-51.3813-23.1327 14.0186 26.3556 41.7652 44.3026 73.7097 44.3026 46.0902 0 83.4507-37.3411 83.4507-83.3966 0-20.4956-7.41301-39.2474-19.6756-53.767"/>
	</g>
</svg>
